G04 #@! TF.FileFunction,Legend,Top*
%FSLAX46Y46*%
G04 Gerber Fmt 4.6, Leading zero omitted, Abs format (unit mm)*
G04 Created by KiCad (PCBNEW 4.0.3+e1-6302~38~ubuntu14.04.1-stable) date Thu Sep  8 17:11:28 2016*
%MOMM*%
%LPD*%
G01*
G04 APERTURE LIST*
%ADD10C,0.100000*%
%ADD11C,0.254000*%
%ADD12C,0.203200*%
%ADD13C,0.150000*%
%ADD14C,0.400000*%
G04 APERTURE END LIST*
D10*
D11*
X107082167Y-84241519D02*
X106961214Y-84193138D01*
X106900738Y-84144757D01*
X106840262Y-84047995D01*
X106840262Y-83757710D01*
X106900738Y-83660948D01*
X106961214Y-83612567D01*
X107082167Y-83564186D01*
X107263595Y-83564186D01*
X107384547Y-83612567D01*
X107445024Y-83660948D01*
X107505500Y-83757710D01*
X107505500Y-84047995D01*
X107445024Y-84144757D01*
X107384547Y-84193138D01*
X107263595Y-84241519D01*
X107082167Y-84241519D01*
X107989310Y-84193138D02*
X108110262Y-84241519D01*
X108352167Y-84241519D01*
X108473119Y-84193138D01*
X108533595Y-84096376D01*
X108533595Y-84047995D01*
X108473119Y-83951233D01*
X108352167Y-83902852D01*
X108170738Y-83902852D01*
X108049786Y-83854471D01*
X107989310Y-83757710D01*
X107989310Y-83709329D01*
X108049786Y-83612567D01*
X108170738Y-83564186D01*
X108352167Y-83564186D01*
X108473119Y-83612567D01*
X109077881Y-84241519D02*
X109077881Y-83225519D01*
X109622167Y-84241519D02*
X109622167Y-83709329D01*
X109561690Y-83612567D01*
X109440738Y-83564186D01*
X109259310Y-83564186D01*
X109138357Y-83612567D01*
X109077881Y-83660948D01*
X110226929Y-83564186D02*
X110226929Y-84580186D01*
X110226929Y-83612567D02*
X110347881Y-83564186D01*
X110589786Y-83564186D01*
X110710738Y-83612567D01*
X110771215Y-83660948D01*
X110831691Y-83757710D01*
X110831691Y-84047995D01*
X110771215Y-84144757D01*
X110710738Y-84193138D01*
X110589786Y-84241519D01*
X110347881Y-84241519D01*
X110226929Y-84193138D01*
X111920263Y-84241519D02*
X111920263Y-83709329D01*
X111859786Y-83612567D01*
X111738834Y-83564186D01*
X111496929Y-83564186D01*
X111375977Y-83612567D01*
X111920263Y-84193138D02*
X111799310Y-84241519D01*
X111496929Y-84241519D01*
X111375977Y-84193138D01*
X111315501Y-84096376D01*
X111315501Y-83999614D01*
X111375977Y-83902852D01*
X111496929Y-83854471D01*
X111799310Y-83854471D01*
X111920263Y-83806090D01*
X112525025Y-84241519D02*
X112525025Y-83564186D01*
X112525025Y-83757710D02*
X112585501Y-83660948D01*
X112645977Y-83612567D01*
X112766930Y-83564186D01*
X112887882Y-83564186D01*
X113311215Y-84241519D02*
X113311215Y-83225519D01*
X113432167Y-83854471D02*
X113795024Y-84241519D01*
X113795024Y-83564186D02*
X113311215Y-83951233D01*
X114339310Y-84144757D02*
X114399786Y-84193138D01*
X114339310Y-84241519D01*
X114278834Y-84193138D01*
X114339310Y-84144757D01*
X114339310Y-84241519D01*
X115488358Y-84193138D02*
X115367405Y-84241519D01*
X115125501Y-84241519D01*
X115004548Y-84193138D01*
X114944072Y-84144757D01*
X114883596Y-84047995D01*
X114883596Y-83757710D01*
X114944072Y-83660948D01*
X115004548Y-83612567D01*
X115125501Y-83564186D01*
X115367405Y-83564186D01*
X115488358Y-83612567D01*
X116214072Y-84241519D02*
X116093119Y-84193138D01*
X116032643Y-84144757D01*
X115972167Y-84047995D01*
X115972167Y-83757710D01*
X116032643Y-83660948D01*
X116093119Y-83612567D01*
X116214072Y-83564186D01*
X116395500Y-83564186D01*
X116516452Y-83612567D01*
X116576929Y-83660948D01*
X116637405Y-83757710D01*
X116637405Y-84047995D01*
X116576929Y-84144757D01*
X116516452Y-84193138D01*
X116395500Y-84241519D01*
X116214072Y-84241519D01*
X117181691Y-84241519D02*
X117181691Y-83564186D01*
X117181691Y-83660948D02*
X117242167Y-83612567D01*
X117363120Y-83564186D01*
X117544548Y-83564186D01*
X117665500Y-83612567D01*
X117725977Y-83709329D01*
X117725977Y-84241519D01*
X117725977Y-83709329D02*
X117786453Y-83612567D01*
X117907405Y-83564186D01*
X118088834Y-83564186D01*
X118209786Y-83612567D01*
X118270262Y-83709329D01*
X118270262Y-84241519D01*
X59762573Y-83812138D02*
X59944001Y-83860519D01*
X60246382Y-83860519D01*
X60367335Y-83812138D01*
X60427811Y-83763757D01*
X60488287Y-83666995D01*
X60488287Y-83570233D01*
X60427811Y-83473471D01*
X60367335Y-83425090D01*
X60246382Y-83376710D01*
X60004478Y-83328329D01*
X59883525Y-83279948D01*
X59823049Y-83231567D01*
X59762573Y-83134805D01*
X59762573Y-83038043D01*
X59823049Y-82941281D01*
X59883525Y-82892900D01*
X60004478Y-82844519D01*
X60306858Y-82844519D01*
X60488287Y-82892900D01*
X61032573Y-83860519D02*
X61032573Y-82844519D01*
X61576859Y-83860519D02*
X61576859Y-83328329D01*
X61516382Y-83231567D01*
X61395430Y-83183186D01*
X61214002Y-83183186D01*
X61093049Y-83231567D01*
X61032573Y-83279948D01*
X62181621Y-83860519D02*
X62181621Y-83183186D01*
X62181621Y-82844519D02*
X62121145Y-82892900D01*
X62181621Y-82941281D01*
X62242097Y-82892900D01*
X62181621Y-82844519D01*
X62181621Y-82941281D01*
X62604954Y-83183186D02*
X63088764Y-83183186D01*
X62786383Y-83860519D02*
X62786383Y-82989662D01*
X62846859Y-82892900D01*
X62967812Y-82844519D01*
X63088764Y-82844519D01*
X63330668Y-83183186D02*
X63814478Y-83183186D01*
X63512097Y-82844519D02*
X63512097Y-83715376D01*
X63572573Y-83812138D01*
X63693526Y-83860519D01*
X63814478Y-83860519D01*
X65931144Y-83860519D02*
X65507811Y-83376710D01*
X65205430Y-83860519D02*
X65205430Y-82844519D01*
X65689239Y-82844519D01*
X65810192Y-82892900D01*
X65870668Y-82941281D01*
X65931144Y-83038043D01*
X65931144Y-83183186D01*
X65870668Y-83279948D01*
X65810192Y-83328329D01*
X65689239Y-83376710D01*
X65205430Y-83376710D01*
X66959239Y-83812138D02*
X66838287Y-83860519D01*
X66596382Y-83860519D01*
X66475430Y-83812138D01*
X66414954Y-83715376D01*
X66414954Y-83328329D01*
X66475430Y-83231567D01*
X66596382Y-83183186D01*
X66838287Y-83183186D01*
X66959239Y-83231567D01*
X67019716Y-83328329D01*
X67019716Y-83425090D01*
X66414954Y-83521852D01*
X68108287Y-83183186D02*
X68108287Y-84005662D01*
X68047810Y-84102424D01*
X67987334Y-84150805D01*
X67866382Y-84199186D01*
X67684953Y-84199186D01*
X67564001Y-84150805D01*
X68108287Y-83812138D02*
X67987334Y-83860519D01*
X67745430Y-83860519D01*
X67624477Y-83812138D01*
X67564001Y-83763757D01*
X67503525Y-83666995D01*
X67503525Y-83376710D01*
X67564001Y-83279948D01*
X67624477Y-83231567D01*
X67745430Y-83183186D01*
X67987334Y-83183186D01*
X68108287Y-83231567D01*
X68713049Y-83860519D02*
X68713049Y-83183186D01*
X68713049Y-82844519D02*
X68652573Y-82892900D01*
X68713049Y-82941281D01*
X68773525Y-82892900D01*
X68713049Y-82844519D01*
X68713049Y-82941281D01*
X69257335Y-83812138D02*
X69378287Y-83860519D01*
X69620192Y-83860519D01*
X69741144Y-83812138D01*
X69801620Y-83715376D01*
X69801620Y-83666995D01*
X69741144Y-83570233D01*
X69620192Y-83521852D01*
X69438763Y-83521852D01*
X69317811Y-83473471D01*
X69257335Y-83376710D01*
X69257335Y-83328329D01*
X69317811Y-83231567D01*
X69438763Y-83183186D01*
X69620192Y-83183186D01*
X69741144Y-83231567D01*
X70164477Y-83183186D02*
X70648287Y-83183186D01*
X70345906Y-82844519D02*
X70345906Y-83715376D01*
X70406382Y-83812138D01*
X70527335Y-83860519D01*
X70648287Y-83860519D01*
X71555429Y-83812138D02*
X71434477Y-83860519D01*
X71192572Y-83860519D01*
X71071620Y-83812138D01*
X71011144Y-83715376D01*
X71011144Y-83328329D01*
X71071620Y-83231567D01*
X71192572Y-83183186D01*
X71434477Y-83183186D01*
X71555429Y-83231567D01*
X71615906Y-83328329D01*
X71615906Y-83425090D01*
X71011144Y-83521852D01*
X72160191Y-83860519D02*
X72160191Y-83183186D01*
X72160191Y-83376710D02*
X72220667Y-83279948D01*
X72281143Y-83231567D01*
X72402096Y-83183186D01*
X72523048Y-83183186D01*
X73914000Y-83860519D02*
X73914000Y-82844519D01*
X74216381Y-82844519D01*
X74397809Y-82892900D01*
X74518762Y-82989662D01*
X74579238Y-83086424D01*
X74639714Y-83279948D01*
X74639714Y-83425090D01*
X74579238Y-83618614D01*
X74518762Y-83715376D01*
X74397809Y-83812138D01*
X74216381Y-83860519D01*
X73914000Y-83860519D01*
X75667809Y-83812138D02*
X75546857Y-83860519D01*
X75304952Y-83860519D01*
X75184000Y-83812138D01*
X75123524Y-83715376D01*
X75123524Y-83328329D01*
X75184000Y-83231567D01*
X75304952Y-83183186D01*
X75546857Y-83183186D01*
X75667809Y-83231567D01*
X75728286Y-83328329D01*
X75728286Y-83425090D01*
X75123524Y-83521852D01*
X76272571Y-83860519D02*
X76272571Y-83183186D01*
X76272571Y-83279948D02*
X76333047Y-83231567D01*
X76454000Y-83183186D01*
X76635428Y-83183186D01*
X76756380Y-83231567D01*
X76816857Y-83328329D01*
X76816857Y-83860519D01*
X76816857Y-83328329D02*
X76877333Y-83231567D01*
X76998285Y-83183186D01*
X77179714Y-83183186D01*
X77300666Y-83231567D01*
X77361142Y-83328329D01*
X77361142Y-83860519D01*
X78147333Y-83860519D02*
X78026380Y-83812138D01*
X77965904Y-83763757D01*
X77905428Y-83666995D01*
X77905428Y-83376710D01*
X77965904Y-83279948D01*
X78026380Y-83231567D01*
X78147333Y-83183186D01*
X78328761Y-83183186D01*
X78449713Y-83231567D01*
X78510190Y-83279948D01*
X78570666Y-83376710D01*
X78570666Y-83666995D01*
X78510190Y-83763757D01*
X78449713Y-83812138D01*
X78328761Y-83860519D01*
X78147333Y-83860519D01*
X79961619Y-83183186D02*
X80264000Y-83860519D01*
X80566380Y-83183186D01*
X80989714Y-82941281D02*
X81050190Y-82892900D01*
X81171142Y-82844519D01*
X81473523Y-82844519D01*
X81594476Y-82892900D01*
X81654952Y-82941281D01*
X81715428Y-83038043D01*
X81715428Y-83134805D01*
X81654952Y-83279948D01*
X80929238Y-83860519D01*
X81715428Y-83860519D01*
D12*
X121496668Y-95151424D02*
X122343334Y-95151424D01*
X121799049Y-96421424D01*
X123371430Y-95574757D02*
X123371430Y-96421424D01*
X123069049Y-95090948D02*
X122766668Y-95998090D01*
X123552858Y-95998090D01*
X124036668Y-96421424D02*
X124036668Y-95151424D01*
X124036668Y-95756186D02*
X124762382Y-95756186D01*
X124762382Y-96421424D02*
X124762382Y-95151424D01*
X126092858Y-96300471D02*
X126032382Y-96360948D01*
X125850953Y-96421424D01*
X125730001Y-96421424D01*
X125548573Y-96360948D01*
X125427620Y-96239995D01*
X125367144Y-96119043D01*
X125306668Y-95877138D01*
X125306668Y-95695710D01*
X125367144Y-95453805D01*
X125427620Y-95332852D01*
X125548573Y-95211900D01*
X125730001Y-95151424D01*
X125850953Y-95151424D01*
X126032382Y-95211900D01*
X126092858Y-95272376D01*
X127241906Y-95151424D02*
X126637144Y-95151424D01*
X126576668Y-95756186D01*
X126637144Y-95695710D01*
X126758096Y-95635233D01*
X127060477Y-95635233D01*
X127181430Y-95695710D01*
X127241906Y-95756186D01*
X127302382Y-95877138D01*
X127302382Y-96179519D01*
X127241906Y-96300471D01*
X127181430Y-96360948D01*
X127060477Y-96421424D01*
X126758096Y-96421424D01*
X126637144Y-96360948D01*
X126576668Y-96300471D01*
X127907144Y-96421424D02*
X128149049Y-96421424D01*
X128270001Y-96360948D01*
X128330477Y-96300471D01*
X128451430Y-96119043D01*
X128511906Y-95877138D01*
X128511906Y-95393329D01*
X128451430Y-95272376D01*
X128390954Y-95211900D01*
X128270001Y-95151424D01*
X128028097Y-95151424D01*
X127907144Y-95211900D01*
X127846668Y-95272376D01*
X127786192Y-95393329D01*
X127786192Y-95695710D01*
X127846668Y-95816662D01*
X127907144Y-95877138D01*
X128028097Y-95937614D01*
X128270001Y-95937614D01*
X128390954Y-95877138D01*
X128451430Y-95816662D01*
X128511906Y-95695710D01*
X129660954Y-95151424D02*
X129056192Y-95151424D01*
X128995716Y-95756186D01*
X129056192Y-95695710D01*
X129177144Y-95635233D01*
X129479525Y-95635233D01*
X129600478Y-95695710D01*
X129660954Y-95756186D01*
X129721430Y-95877138D01*
X129721430Y-96179519D01*
X129660954Y-96300471D01*
X129600478Y-96360948D01*
X129479525Y-96421424D01*
X129177144Y-96421424D01*
X129056192Y-96360948D01*
X128995716Y-96300471D01*
X130265716Y-96421424D02*
X130265716Y-95151424D01*
X130991430Y-96421424D01*
X130991430Y-95151424D01*
X132503335Y-96360948D02*
X132684763Y-96421424D01*
X132987144Y-96421424D01*
X133108097Y-96360948D01*
X133168573Y-96300471D01*
X133229049Y-96179519D01*
X133229049Y-96058567D01*
X133168573Y-95937614D01*
X133108097Y-95877138D01*
X132987144Y-95816662D01*
X132745240Y-95756186D01*
X132624287Y-95695710D01*
X132563811Y-95635233D01*
X132503335Y-95514281D01*
X132503335Y-95393329D01*
X132563811Y-95272376D01*
X132624287Y-95211900D01*
X132745240Y-95151424D01*
X133047620Y-95151424D01*
X133229049Y-95211900D01*
X133773335Y-96421424D02*
X133773335Y-95151424D01*
X134317621Y-96421424D02*
X134317621Y-95756186D01*
X134257144Y-95635233D01*
X134136192Y-95574757D01*
X133954764Y-95574757D01*
X133833811Y-95635233D01*
X133773335Y-95695710D01*
X134922383Y-96421424D02*
X134922383Y-95574757D01*
X134922383Y-95151424D02*
X134861907Y-95211900D01*
X134922383Y-95272376D01*
X134982859Y-95211900D01*
X134922383Y-95151424D01*
X134922383Y-95272376D01*
X135345716Y-95574757D02*
X135829526Y-95574757D01*
X135527145Y-96421424D02*
X135527145Y-95332852D01*
X135587621Y-95211900D01*
X135708574Y-95151424D01*
X135829526Y-95151424D01*
X136071430Y-95574757D02*
X136555240Y-95574757D01*
X136252859Y-95151424D02*
X136252859Y-96239995D01*
X136313335Y-96360948D01*
X136434288Y-96421424D01*
X136555240Y-96421424D01*
X138671906Y-96421424D02*
X138248573Y-95816662D01*
X137946192Y-96421424D02*
X137946192Y-95151424D01*
X138430001Y-95151424D01*
X138550954Y-95211900D01*
X138611430Y-95272376D01*
X138671906Y-95393329D01*
X138671906Y-95574757D01*
X138611430Y-95695710D01*
X138550954Y-95756186D01*
X138430001Y-95816662D01*
X137946192Y-95816662D01*
X139700001Y-96360948D02*
X139579049Y-96421424D01*
X139337144Y-96421424D01*
X139216192Y-96360948D01*
X139155716Y-96239995D01*
X139155716Y-95756186D01*
X139216192Y-95635233D01*
X139337144Y-95574757D01*
X139579049Y-95574757D01*
X139700001Y-95635233D01*
X139760478Y-95756186D01*
X139760478Y-95877138D01*
X139155716Y-95998090D01*
X140849049Y-95574757D02*
X140849049Y-96602852D01*
X140788572Y-96723805D01*
X140728096Y-96784281D01*
X140607144Y-96844757D01*
X140425715Y-96844757D01*
X140304763Y-96784281D01*
X140849049Y-96360948D02*
X140728096Y-96421424D01*
X140486192Y-96421424D01*
X140365239Y-96360948D01*
X140304763Y-96300471D01*
X140244287Y-96179519D01*
X140244287Y-95816662D01*
X140304763Y-95695710D01*
X140365239Y-95635233D01*
X140486192Y-95574757D01*
X140728096Y-95574757D01*
X140849049Y-95635233D01*
X141453811Y-96421424D02*
X141453811Y-95574757D01*
X141453811Y-95151424D02*
X141393335Y-95211900D01*
X141453811Y-95272376D01*
X141514287Y-95211900D01*
X141453811Y-95151424D01*
X141453811Y-95272376D01*
X141998097Y-96360948D02*
X142119049Y-96421424D01*
X142360954Y-96421424D01*
X142481906Y-96360948D01*
X142542382Y-96239995D01*
X142542382Y-96179519D01*
X142481906Y-96058567D01*
X142360954Y-95998090D01*
X142179525Y-95998090D01*
X142058573Y-95937614D01*
X141998097Y-95816662D01*
X141998097Y-95756186D01*
X142058573Y-95635233D01*
X142179525Y-95574757D01*
X142360954Y-95574757D01*
X142481906Y-95635233D01*
X142905239Y-95574757D02*
X143389049Y-95574757D01*
X143086668Y-95151424D02*
X143086668Y-96239995D01*
X143147144Y-96360948D01*
X143268097Y-96421424D01*
X143389049Y-96421424D01*
X144296191Y-96360948D02*
X144175239Y-96421424D01*
X143933334Y-96421424D01*
X143812382Y-96360948D01*
X143751906Y-96239995D01*
X143751906Y-95756186D01*
X143812382Y-95635233D01*
X143933334Y-95574757D01*
X144175239Y-95574757D01*
X144296191Y-95635233D01*
X144356668Y-95756186D01*
X144356668Y-95877138D01*
X143751906Y-95998090D01*
X144900953Y-96421424D02*
X144900953Y-95574757D01*
X144900953Y-95816662D02*
X144961429Y-95695710D01*
X145021905Y-95635233D01*
X145142858Y-95574757D01*
X145263810Y-95574757D01*
D11*
X93456881Y-82892900D02*
X93335929Y-82832424D01*
X93154500Y-82832424D01*
X92973072Y-82892900D01*
X92852119Y-83013852D01*
X92791643Y-83134805D01*
X92731167Y-83376710D01*
X92731167Y-83558138D01*
X92791643Y-83800043D01*
X92852119Y-83920995D01*
X92973072Y-84041948D01*
X93154500Y-84102424D01*
X93275452Y-84102424D01*
X93456881Y-84041948D01*
X93517357Y-83981471D01*
X93517357Y-83558138D01*
X93275452Y-83558138D01*
X94061643Y-84102424D02*
X94061643Y-82832424D01*
X94787357Y-84102424D01*
X94787357Y-82832424D01*
X95392119Y-84102424D02*
X95392119Y-82832424D01*
X95694500Y-82832424D01*
X95875928Y-82892900D01*
X95996881Y-83013852D01*
X96057357Y-83134805D01*
X96117833Y-83376710D01*
X96117833Y-83558138D01*
X96057357Y-83800043D01*
X95996881Y-83920995D01*
X95875928Y-84041948D01*
X95694500Y-84102424D01*
X95392119Y-84102424D01*
X98781810Y-84102424D02*
X99023715Y-84102424D01*
X99144667Y-84041948D01*
X99205143Y-83981471D01*
X99326096Y-83800043D01*
X99386572Y-83558138D01*
X99386572Y-83074329D01*
X99326096Y-82953376D01*
X99265620Y-82892900D01*
X99144667Y-82832424D01*
X98902763Y-82832424D01*
X98781810Y-82892900D01*
X98721334Y-82953376D01*
X98660858Y-83074329D01*
X98660858Y-83376710D01*
X98721334Y-83497662D01*
X98781810Y-83558138D01*
X98902763Y-83618614D01*
X99144667Y-83618614D01*
X99265620Y-83558138D01*
X99326096Y-83497662D01*
X99386572Y-83376710D01*
X99749429Y-82832424D02*
X100172763Y-84102424D01*
X100596096Y-82832424D01*
D13*
X100738000Y-97207900D02*
X93238000Y-97207900D01*
X93238000Y-97207900D02*
X93238000Y-92707900D01*
X93238000Y-92707900D02*
X100738000Y-92707900D01*
X100738000Y-92707900D02*
X100738000Y-97207900D01*
X135619132Y-103157788D02*
G75*
G03X132594228Y-103172900I-1524904J2484888D01*
G01*
X135594228Y-103172900D02*
X132594228Y-103172900D01*
X136612164Y-100672900D02*
G75*
G03X136612164Y-100672900I-2517936J0D01*
G01*
X111288000Y-93667900D02*
X111288000Y-86167900D01*
X111288000Y-86167900D02*
X115788000Y-86167900D01*
X115788000Y-86167900D02*
X115788000Y-93667900D01*
X115788000Y-93667900D02*
X111288000Y-93667900D01*
X120868000Y-86167900D02*
X120868000Y-93667900D01*
X120868000Y-93667900D02*
X116368000Y-93667900D01*
X116368000Y-93667900D02*
X116368000Y-86167900D01*
X116368000Y-86167900D02*
X120868000Y-86167900D01*
X62738000Y-94322900D02*
X62738000Y-107022900D01*
X62738000Y-107022900D02*
X60198000Y-107022900D01*
X60198000Y-107022900D02*
X60198000Y-94322900D01*
X63018000Y-91502900D02*
X63018000Y-93052900D01*
X62738000Y-94322900D02*
X60198000Y-94322900D01*
X59918000Y-93052900D02*
X59918000Y-91502900D01*
X59918000Y-91502900D02*
X63018000Y-91502900D01*
X97028000Y-89877900D02*
X94488000Y-89877900D01*
X99848000Y-90157900D02*
X98298000Y-90157900D01*
X97028000Y-89877900D02*
X97028000Y-87337900D01*
X98298000Y-87057900D02*
X99848000Y-87057900D01*
X99848000Y-87057900D02*
X99848000Y-90157900D01*
X97028000Y-87337900D02*
X94488000Y-87337900D01*
X94488000Y-87337900D02*
X94488000Y-89877900D01*
X160528000Y-93052900D02*
X160528000Y-105752900D01*
X160528000Y-105752900D02*
X157988000Y-105752900D01*
X157988000Y-105752900D02*
X157988000Y-93052900D01*
X160808000Y-90232900D02*
X160808000Y-91782900D01*
X160528000Y-93052900D02*
X157988000Y-93052900D01*
X157708000Y-91782900D02*
X157708000Y-90232900D01*
X157708000Y-90232900D02*
X160808000Y-90232900D01*
X97899228Y-113026936D02*
X97899228Y-107946936D01*
X97899228Y-107946936D02*
X100439228Y-107946936D01*
X100439228Y-107946936D02*
X100439228Y-113026936D01*
X100439228Y-113026936D02*
X97899228Y-113026936D01*
X104884228Y-113026936D02*
X104884228Y-107946936D01*
X104884228Y-107946936D02*
X107424228Y-107946936D01*
X107424228Y-107946936D02*
X107424228Y-113026936D01*
X107424228Y-113026936D02*
X104884228Y-113026936D01*
X111869228Y-113026936D02*
X111869228Y-107946936D01*
X111869228Y-107946936D02*
X114409228Y-107946936D01*
X114409228Y-107946936D02*
X114409228Y-113026936D01*
X114409228Y-113026936D02*
X111869228Y-113026936D01*
X118854228Y-113026936D02*
X118854228Y-107946936D01*
X118854228Y-107946936D02*
X121394228Y-107946936D01*
X121394228Y-107946936D02*
X121394228Y-113026936D01*
X121394228Y-113026936D02*
X118854228Y-113026936D01*
X125839228Y-113026936D02*
X125839228Y-107946936D01*
X125839228Y-107946936D02*
X128379228Y-107946936D01*
X128379228Y-107946936D02*
X128379228Y-113026936D01*
X128379228Y-113026936D02*
X125839228Y-113026936D01*
X132824228Y-113026936D02*
X132824228Y-107946936D01*
X132824228Y-107946936D02*
X135364228Y-107946936D01*
X135364228Y-107946936D02*
X135364228Y-113026936D01*
X135364228Y-113026936D02*
X132824228Y-113026936D01*
X139809228Y-113026936D02*
X139809228Y-107946936D01*
X139809228Y-107946936D02*
X142349228Y-107946936D01*
X142349228Y-107946936D02*
X142349228Y-113026936D01*
X142349228Y-113026936D02*
X139809228Y-113026936D01*
X146794228Y-113026936D02*
X146794228Y-107946936D01*
X146794228Y-107946936D02*
X149334228Y-107946936D01*
X149334228Y-107946936D02*
X149334228Y-113026936D01*
X149334228Y-113026936D02*
X146794228Y-113026936D01*
X67183000Y-92417900D02*
X67183000Y-87337900D01*
X67183000Y-87337900D02*
X69723000Y-87337900D01*
X69723000Y-87337900D02*
X69723000Y-92417900D01*
X69723000Y-92417900D02*
X67183000Y-92417900D01*
X76073000Y-92417900D02*
X76073000Y-87337900D01*
X76073000Y-87337900D02*
X78613000Y-87337900D01*
X78613000Y-87337900D02*
X78613000Y-92417900D01*
X78613000Y-92417900D02*
X76073000Y-92417900D01*
X85598000Y-92417900D02*
X85598000Y-87337900D01*
X85598000Y-87337900D02*
X88138000Y-87337900D01*
X88138000Y-87337900D02*
X88138000Y-92417900D01*
X88138000Y-92417900D02*
X85598000Y-92417900D01*
X154813000Y-87972900D02*
X149733000Y-87972900D01*
X149733000Y-87972900D02*
X149733000Y-85432900D01*
X149733000Y-85432900D02*
X154813000Y-85432900D01*
X154813000Y-85432900D02*
X154813000Y-87972900D01*
X156718000Y-96862900D02*
X156718000Y-101942900D01*
X156718000Y-101942900D02*
X154178000Y-101942900D01*
X154178000Y-101942900D02*
X154178000Y-96862900D01*
X154178000Y-96862900D02*
X156718000Y-96862900D01*
X64913000Y-114322900D02*
X65013000Y-114322900D01*
X64863000Y-114422900D02*
X64863000Y-114072900D01*
X64863000Y-114072900D02*
G75*
G03X65213000Y-114422900I1050000J700000D01*
G01*
X64863000Y-114422900D02*
X65213000Y-114422900D01*
X69327214Y-110372900D02*
G75*
G03X69327214Y-110372900I-1414214J0D01*
G01*
X70913000Y-112372900D02*
X70913000Y-108372900D01*
X64913000Y-112372900D02*
X64913000Y-108372900D01*
X68663000Y-113372900D02*
X67163000Y-113372900D01*
X67163000Y-107372900D02*
X68663000Y-107372900D01*
D10*
X67913000Y-113372900D02*
X67913000Y-113372900D01*
X70913000Y-108372900D02*
X70913000Y-112372900D01*
X64913000Y-108372900D02*
X64913000Y-112372900D01*
X67913000Y-107372900D02*
X67913000Y-107372900D01*
X69327214Y-110372900D02*
G75*
G03X69327214Y-110372900I-1414214J0D01*
G01*
D13*
X74248000Y-114322900D02*
X74348000Y-114322900D01*
X74198000Y-114422900D02*
X74198000Y-114072900D01*
X74198000Y-114072900D02*
G75*
G03X74548000Y-114422900I1050000J700000D01*
G01*
X74198000Y-114422900D02*
X74548000Y-114422900D01*
X78662214Y-110372900D02*
G75*
G03X78662214Y-110372900I-1414214J0D01*
G01*
X80248000Y-112372900D02*
X80248000Y-108372900D01*
X74248000Y-112372900D02*
X74248000Y-108372900D01*
X77998000Y-113372900D02*
X76498000Y-113372900D01*
X76498000Y-107372900D02*
X77998000Y-107372900D01*
D10*
X77248000Y-113372900D02*
X77248000Y-113372900D01*
X80248000Y-108372900D02*
X80248000Y-112372900D01*
X74248000Y-108372900D02*
X74248000Y-112372900D01*
X77248000Y-107372900D02*
X77248000Y-107372900D01*
X78662214Y-110372900D02*
G75*
G03X78662214Y-110372900I-1414214J0D01*
G01*
D13*
X83773000Y-114322900D02*
X83873000Y-114322900D01*
X83723000Y-114422900D02*
X83723000Y-114072900D01*
X83723000Y-114072900D02*
G75*
G03X84073000Y-114422900I1050000J700000D01*
G01*
X83723000Y-114422900D02*
X84073000Y-114422900D01*
X88187214Y-110372900D02*
G75*
G03X88187214Y-110372900I-1414214J0D01*
G01*
X89773000Y-112372900D02*
X89773000Y-108372900D01*
X83773000Y-112372900D02*
X83773000Y-108372900D01*
X87523000Y-113372900D02*
X86023000Y-113372900D01*
X86023000Y-107372900D02*
X87523000Y-107372900D01*
D10*
X86773000Y-113372900D02*
X86773000Y-113372900D01*
X89773000Y-108372900D02*
X89773000Y-112372900D01*
X83773000Y-108372900D02*
X83773000Y-112372900D01*
X86773000Y-107372900D02*
X86773000Y-107372900D01*
X88187214Y-110372900D02*
G75*
G03X88187214Y-110372900I-1414214J0D01*
G01*
D13*
X160258000Y-107057900D02*
X160158000Y-107057900D01*
X160308000Y-106957900D02*
X160308000Y-107307900D01*
X160308000Y-107307900D02*
G75*
G03X159958000Y-106957900I-1050000J-700000D01*
G01*
X160308000Y-106957900D02*
X159958000Y-106957900D01*
X158672214Y-111007900D02*
G75*
G03X158672214Y-111007900I-1414214J0D01*
G01*
X154258000Y-109007900D02*
X154258000Y-113007900D01*
X160258000Y-109007900D02*
X160258000Y-113007900D01*
X156508000Y-108007900D02*
X158008000Y-108007900D01*
X158008000Y-114007900D02*
X156508000Y-114007900D01*
D10*
X157258000Y-108007900D02*
X157258000Y-108007900D01*
X154258000Y-113007900D02*
X154258000Y-109007900D01*
X160258000Y-113007900D02*
X160258000Y-109007900D01*
X157258000Y-114007900D02*
X157258000Y-114007900D01*
X158672214Y-111007900D02*
G75*
G03X158672214Y-111007900I-1414214J0D01*
G01*
D13*
X109093000Y-96481900D02*
X109093000Y-94576900D01*
X109093000Y-92036900D02*
X109093000Y-92798900D01*
X109093000Y-89623900D02*
X109093000Y-89496900D01*
X109093000Y-89623900D02*
X109093000Y-90258900D01*
X109093000Y-85813900D02*
X109093000Y-87591900D01*
X105410000Y-85813900D02*
X105410000Y-87464900D01*
X105283000Y-90131900D02*
X105283000Y-89496900D01*
X105283000Y-92671900D02*
X105283000Y-92036900D01*
X105410000Y-96481900D02*
X105410000Y-94830900D01*
X110236000Y-89623900D02*
X109093000Y-89623900D01*
X110236000Y-92671900D02*
X109093000Y-92671900D01*
X109093000Y-96481900D02*
X105410000Y-96481900D01*
X105410000Y-85813900D02*
X109093000Y-85813900D01*
X110236000Y-96481900D02*
X109093000Y-96481900D01*
X109093000Y-85813900D02*
X110236000Y-85813900D01*
X110236000Y-91147900D02*
X110236000Y-85813900D01*
X110236000Y-91147900D02*
X110236000Y-96481900D01*
X122038000Y-92917900D02*
X123308000Y-92917900D01*
X122038000Y-85567900D02*
X123308000Y-85567900D01*
X144408000Y-85567900D02*
X143138000Y-85567900D01*
X144408000Y-92917900D02*
X143138000Y-92917900D01*
X122038000Y-92917900D02*
X122038000Y-85567900D01*
X144408000Y-92917900D02*
X144408000Y-85567900D01*
X123308000Y-92917900D02*
X123308000Y-94202900D01*
X144408000Y-92917900D02*
X144408000Y-85567900D01*
D14*
X122914210Y-93814900D02*
G75*
G03X122914210Y-93814900I-359210J0D01*
G01*
D13*
X149589132Y-103157788D02*
G75*
G03X146564228Y-103172900I-1524904J2484888D01*
G01*
X149564228Y-103172900D02*
X146564228Y-103172900D01*
X150582164Y-100672900D02*
G75*
G03X150582164Y-100672900I-2517936J0D01*
G01*
X142604132Y-103157788D02*
G75*
G03X139579228Y-103172900I-1524904J2484888D01*
G01*
X142579228Y-103172900D02*
X139579228Y-103172900D01*
X143597164Y-100672900D02*
G75*
G03X143597164Y-100672900I-2517936J0D01*
G01*
X128634132Y-103157788D02*
G75*
G03X125609228Y-103172900I-1524904J2484888D01*
G01*
X128609228Y-103172900D02*
X125609228Y-103172900D01*
X129627164Y-100672900D02*
G75*
G03X129627164Y-100672900I-2517936J0D01*
G01*
X121649132Y-103792788D02*
G75*
G03X118624228Y-103807900I-1524904J2484888D01*
G01*
X121624228Y-103807900D02*
X118624228Y-103807900D01*
X122642164Y-101307900D02*
G75*
G03X122642164Y-101307900I-2517936J0D01*
G01*
X114664132Y-103792788D02*
G75*
G03X111639228Y-103807900I-1524904J2484888D01*
G01*
X114639228Y-103807900D02*
X111639228Y-103807900D01*
X115657164Y-101307900D02*
G75*
G03X115657164Y-101307900I-2517936J0D01*
G01*
X107679132Y-103792788D02*
G75*
G03X104654228Y-103807900I-1524904J2484888D01*
G01*
X107654228Y-103807900D02*
X104654228Y-103807900D01*
X108672164Y-101307900D02*
G75*
G03X108672164Y-101307900I-2517936J0D01*
G01*
X100694132Y-103792788D02*
G75*
G03X97669228Y-103807900I-1524904J2484888D01*
G01*
X100669228Y-103807900D02*
X97669228Y-103807900D01*
X101687164Y-101307900D02*
G75*
G03X101687164Y-101307900I-2517936J0D01*
G01*
X89352888Y-99147996D02*
G75*
G03X89368000Y-102172900I-2484888J-1524904D01*
G01*
X89368000Y-99172900D02*
X89368000Y-102172900D01*
X89385936Y-100672900D02*
G75*
G03X89385936Y-100672900I-2517936J0D01*
G01*
X79192888Y-99147996D02*
G75*
G03X79208000Y-102172900I-2484888J-1524904D01*
G01*
X79208000Y-99172900D02*
X79208000Y-102172900D01*
X79225936Y-100672900D02*
G75*
G03X79225936Y-100672900I-2517936J0D01*
G01*
X70302888Y-99147996D02*
G75*
G03X70318000Y-102172900I-2484888J-1524904D01*
G01*
X70318000Y-99172900D02*
X70318000Y-102172900D01*
X70335936Y-100672900D02*
G75*
G03X70335936Y-100672900I-2517936J0D01*
G01*
X96871334Y-98565043D02*
X96823715Y-98612662D01*
X96680858Y-98660281D01*
X96585620Y-98660281D01*
X96442762Y-98612662D01*
X96347524Y-98517424D01*
X96299905Y-98422186D01*
X96252286Y-98231710D01*
X96252286Y-98088852D01*
X96299905Y-97898376D01*
X96347524Y-97803138D01*
X96442762Y-97707900D01*
X96585620Y-97660281D01*
X96680858Y-97660281D01*
X96823715Y-97707900D01*
X96871334Y-97755519D01*
X97823715Y-98660281D02*
X97252286Y-98660281D01*
X97538000Y-98660281D02*
X97538000Y-97660281D01*
X97442762Y-97803138D01*
X97347524Y-97898376D01*
X97252286Y-97945995D01*
X138546609Y-101311947D02*
X138546609Y-101788138D01*
X137546609Y-101788138D01*
X138022799Y-100978614D02*
X138022799Y-100645280D01*
X138546609Y-100502423D02*
X138546609Y-100978614D01*
X137546609Y-100978614D01*
X137546609Y-100502423D01*
X138546609Y-100073852D02*
X137546609Y-100073852D01*
X137546609Y-99835757D01*
X137594228Y-99692899D01*
X137689466Y-99597661D01*
X137784704Y-99550042D01*
X137975180Y-99502423D01*
X138118038Y-99502423D01*
X138308514Y-99550042D01*
X138403752Y-99597661D01*
X138498990Y-99692899D01*
X138546609Y-99835757D01*
X138546609Y-100073852D01*
X137546609Y-98597661D02*
X137546609Y-99073852D01*
X138022799Y-99121471D01*
X137975180Y-99073852D01*
X137927561Y-98978614D01*
X137927561Y-98740518D01*
X137975180Y-98645280D01*
X138022799Y-98597661D01*
X138118038Y-98550042D01*
X138356133Y-98550042D01*
X138451371Y-98597661D01*
X138498990Y-98645280D01*
X138546609Y-98740518D01*
X138546609Y-98978614D01*
X138498990Y-99073852D01*
X138451371Y-99121471D01*
X110645143Y-90134566D02*
X110692762Y-90182185D01*
X110740381Y-90325042D01*
X110740381Y-90420280D01*
X110692762Y-90563138D01*
X110597524Y-90658376D01*
X110502286Y-90705995D01*
X110311810Y-90753614D01*
X110168952Y-90753614D01*
X109978476Y-90705995D01*
X109883238Y-90658376D01*
X109788000Y-90563138D01*
X109740381Y-90420280D01*
X109740381Y-90325042D01*
X109788000Y-90182185D01*
X109835619Y-90134566D01*
X109835619Y-89753614D02*
X109788000Y-89705995D01*
X109740381Y-89610757D01*
X109740381Y-89372661D01*
X109788000Y-89277423D01*
X109835619Y-89229804D01*
X109930857Y-89182185D01*
X110026095Y-89182185D01*
X110168952Y-89229804D01*
X110740381Y-89801233D01*
X110740381Y-89182185D01*
X122225143Y-90034566D02*
X122272762Y-90082185D01*
X122320381Y-90225042D01*
X122320381Y-90320280D01*
X122272762Y-90463138D01*
X122177524Y-90558376D01*
X122082286Y-90605995D01*
X121891810Y-90653614D01*
X121748952Y-90653614D01*
X121558476Y-90605995D01*
X121463238Y-90558376D01*
X121368000Y-90463138D01*
X121320381Y-90320280D01*
X121320381Y-90225042D01*
X121368000Y-90082185D01*
X121415619Y-90034566D01*
X121320381Y-89701233D02*
X121320381Y-89082185D01*
X121701333Y-89415519D01*
X121701333Y-89272661D01*
X121748952Y-89177423D01*
X121796571Y-89129804D01*
X121891810Y-89082185D01*
X122129905Y-89082185D01*
X122225143Y-89129804D01*
X122272762Y-89177423D01*
X122320381Y-89272661D01*
X122320381Y-89558376D01*
X122272762Y-89653614D01*
X122225143Y-89701233D01*
X61274667Y-89765281D02*
X61274667Y-90479567D01*
X61227047Y-90622424D01*
X61131809Y-90717662D01*
X60988952Y-90765281D01*
X60893714Y-90765281D01*
X62274667Y-90765281D02*
X61703238Y-90765281D01*
X61988952Y-90765281D02*
X61988952Y-89765281D01*
X61893714Y-89908138D01*
X61798476Y-90003376D01*
X61703238Y-90050995D01*
X100290381Y-90719233D02*
X101004667Y-90719233D01*
X101147524Y-90766853D01*
X101242762Y-90862091D01*
X101290381Y-91004948D01*
X101290381Y-91100186D01*
X100385619Y-90290662D02*
X100338000Y-90243043D01*
X100290381Y-90147805D01*
X100290381Y-89909709D01*
X100338000Y-89814471D01*
X100385619Y-89766852D01*
X100480857Y-89719233D01*
X100576095Y-89719233D01*
X100718952Y-89766852D01*
X101290381Y-90338281D01*
X101290381Y-89719233D01*
X159064667Y-88495281D02*
X159064667Y-89209567D01*
X159017047Y-89352424D01*
X158921809Y-89447662D01*
X158778952Y-89495281D01*
X158683714Y-89495281D01*
X159445619Y-88495281D02*
X160064667Y-88495281D01*
X159731333Y-88876233D01*
X159874191Y-88876233D01*
X159969429Y-88923852D01*
X160017048Y-88971471D01*
X160064667Y-89066710D01*
X160064667Y-89304805D01*
X160017048Y-89400043D01*
X159969429Y-89447662D01*
X159874191Y-89495281D01*
X159588476Y-89495281D01*
X159493238Y-89447662D01*
X159445619Y-89400043D01*
X99621609Y-110653602D02*
X99145418Y-110986936D01*
X99621609Y-111225031D02*
X98621609Y-111225031D01*
X98621609Y-110844078D01*
X98669228Y-110748840D01*
X98716847Y-110701221D01*
X98812085Y-110653602D01*
X98954942Y-110653602D01*
X99050180Y-110701221D01*
X99097799Y-110748840D01*
X99145418Y-110844078D01*
X99145418Y-111225031D01*
X98621609Y-110034555D02*
X98621609Y-109939316D01*
X98669228Y-109844078D01*
X98716847Y-109796459D01*
X98812085Y-109748840D01*
X99002561Y-109701221D01*
X99240657Y-109701221D01*
X99431133Y-109748840D01*
X99526371Y-109796459D01*
X99573990Y-109844078D01*
X99621609Y-109939316D01*
X99621609Y-110034555D01*
X99573990Y-110129793D01*
X99526371Y-110177412D01*
X99431133Y-110225031D01*
X99240657Y-110272650D01*
X99002561Y-110272650D01*
X98812085Y-110225031D01*
X98716847Y-110177412D01*
X98669228Y-110129793D01*
X98621609Y-110034555D01*
X106606609Y-110653602D02*
X106130418Y-110986936D01*
X106606609Y-111225031D02*
X105606609Y-111225031D01*
X105606609Y-110844078D01*
X105654228Y-110748840D01*
X105701847Y-110701221D01*
X105797085Y-110653602D01*
X105939942Y-110653602D01*
X106035180Y-110701221D01*
X106082799Y-110748840D01*
X106130418Y-110844078D01*
X106130418Y-111225031D01*
X106606609Y-109701221D02*
X106606609Y-110272650D01*
X106606609Y-109986936D02*
X105606609Y-109986936D01*
X105749466Y-110082174D01*
X105844704Y-110177412D01*
X105892323Y-110272650D01*
X113591609Y-110653602D02*
X113115418Y-110986936D01*
X113591609Y-111225031D02*
X112591609Y-111225031D01*
X112591609Y-110844078D01*
X112639228Y-110748840D01*
X112686847Y-110701221D01*
X112782085Y-110653602D01*
X112924942Y-110653602D01*
X113020180Y-110701221D01*
X113067799Y-110748840D01*
X113115418Y-110844078D01*
X113115418Y-111225031D01*
X112686847Y-110272650D02*
X112639228Y-110225031D01*
X112591609Y-110129793D01*
X112591609Y-109891697D01*
X112639228Y-109796459D01*
X112686847Y-109748840D01*
X112782085Y-109701221D01*
X112877323Y-109701221D01*
X113020180Y-109748840D01*
X113591609Y-110320269D01*
X113591609Y-109701221D01*
X120576609Y-110653602D02*
X120100418Y-110986936D01*
X120576609Y-111225031D02*
X119576609Y-111225031D01*
X119576609Y-110844078D01*
X119624228Y-110748840D01*
X119671847Y-110701221D01*
X119767085Y-110653602D01*
X119909942Y-110653602D01*
X120005180Y-110701221D01*
X120052799Y-110748840D01*
X120100418Y-110844078D01*
X120100418Y-111225031D01*
X119576609Y-110320269D02*
X119576609Y-109701221D01*
X119957561Y-110034555D01*
X119957561Y-109891697D01*
X120005180Y-109796459D01*
X120052799Y-109748840D01*
X120148038Y-109701221D01*
X120386133Y-109701221D01*
X120481371Y-109748840D01*
X120528990Y-109796459D01*
X120576609Y-109891697D01*
X120576609Y-110177412D01*
X120528990Y-110272650D01*
X120481371Y-110320269D01*
X127561609Y-110653602D02*
X127085418Y-110986936D01*
X127561609Y-111225031D02*
X126561609Y-111225031D01*
X126561609Y-110844078D01*
X126609228Y-110748840D01*
X126656847Y-110701221D01*
X126752085Y-110653602D01*
X126894942Y-110653602D01*
X126990180Y-110701221D01*
X127037799Y-110748840D01*
X127085418Y-110844078D01*
X127085418Y-111225031D01*
X126894942Y-109796459D02*
X127561609Y-109796459D01*
X126513990Y-110034555D02*
X127228276Y-110272650D01*
X127228276Y-109653602D01*
X134546609Y-110653602D02*
X134070418Y-110986936D01*
X134546609Y-111225031D02*
X133546609Y-111225031D01*
X133546609Y-110844078D01*
X133594228Y-110748840D01*
X133641847Y-110701221D01*
X133737085Y-110653602D01*
X133879942Y-110653602D01*
X133975180Y-110701221D01*
X134022799Y-110748840D01*
X134070418Y-110844078D01*
X134070418Y-111225031D01*
X133546609Y-109748840D02*
X133546609Y-110225031D01*
X134022799Y-110272650D01*
X133975180Y-110225031D01*
X133927561Y-110129793D01*
X133927561Y-109891697D01*
X133975180Y-109796459D01*
X134022799Y-109748840D01*
X134118038Y-109701221D01*
X134356133Y-109701221D01*
X134451371Y-109748840D01*
X134498990Y-109796459D01*
X134546609Y-109891697D01*
X134546609Y-110129793D01*
X134498990Y-110225031D01*
X134451371Y-110272650D01*
X141531609Y-110653602D02*
X141055418Y-110986936D01*
X141531609Y-111225031D02*
X140531609Y-111225031D01*
X140531609Y-110844078D01*
X140579228Y-110748840D01*
X140626847Y-110701221D01*
X140722085Y-110653602D01*
X140864942Y-110653602D01*
X140960180Y-110701221D01*
X141007799Y-110748840D01*
X141055418Y-110844078D01*
X141055418Y-111225031D01*
X140531609Y-109796459D02*
X140531609Y-109986936D01*
X140579228Y-110082174D01*
X140626847Y-110129793D01*
X140769704Y-110225031D01*
X140960180Y-110272650D01*
X141341133Y-110272650D01*
X141436371Y-110225031D01*
X141483990Y-110177412D01*
X141531609Y-110082174D01*
X141531609Y-109891697D01*
X141483990Y-109796459D01*
X141436371Y-109748840D01*
X141341133Y-109701221D01*
X141103038Y-109701221D01*
X141007799Y-109748840D01*
X140960180Y-109796459D01*
X140912561Y-109891697D01*
X140912561Y-110082174D01*
X140960180Y-110177412D01*
X141007799Y-110225031D01*
X141103038Y-110272650D01*
X148516609Y-110653602D02*
X148040418Y-110986936D01*
X148516609Y-111225031D02*
X147516609Y-111225031D01*
X147516609Y-110844078D01*
X147564228Y-110748840D01*
X147611847Y-110701221D01*
X147707085Y-110653602D01*
X147849942Y-110653602D01*
X147945180Y-110701221D01*
X147992799Y-110748840D01*
X148040418Y-110844078D01*
X148040418Y-111225031D01*
X147516609Y-110320269D02*
X147516609Y-109653602D01*
X148516609Y-110082174D01*
X68905381Y-90044566D02*
X68429190Y-90377900D01*
X68905381Y-90615995D02*
X67905381Y-90615995D01*
X67905381Y-90235042D01*
X67953000Y-90139804D01*
X68000619Y-90092185D01*
X68095857Y-90044566D01*
X68238714Y-90044566D01*
X68333952Y-90092185D01*
X68381571Y-90139804D01*
X68429190Y-90235042D01*
X68429190Y-90615995D01*
X68333952Y-89473138D02*
X68286333Y-89568376D01*
X68238714Y-89615995D01*
X68143476Y-89663614D01*
X68095857Y-89663614D01*
X68000619Y-89615995D01*
X67953000Y-89568376D01*
X67905381Y-89473138D01*
X67905381Y-89282661D01*
X67953000Y-89187423D01*
X68000619Y-89139804D01*
X68095857Y-89092185D01*
X68143476Y-89092185D01*
X68238714Y-89139804D01*
X68286333Y-89187423D01*
X68333952Y-89282661D01*
X68333952Y-89473138D01*
X68381571Y-89568376D01*
X68429190Y-89615995D01*
X68524429Y-89663614D01*
X68714905Y-89663614D01*
X68810143Y-89615995D01*
X68857762Y-89568376D01*
X68905381Y-89473138D01*
X68905381Y-89282661D01*
X68857762Y-89187423D01*
X68810143Y-89139804D01*
X68714905Y-89092185D01*
X68524429Y-89092185D01*
X68429190Y-89139804D01*
X68381571Y-89187423D01*
X68333952Y-89282661D01*
X77795381Y-90044566D02*
X77319190Y-90377900D01*
X77795381Y-90615995D02*
X76795381Y-90615995D01*
X76795381Y-90235042D01*
X76843000Y-90139804D01*
X76890619Y-90092185D01*
X76985857Y-90044566D01*
X77128714Y-90044566D01*
X77223952Y-90092185D01*
X77271571Y-90139804D01*
X77319190Y-90235042D01*
X77319190Y-90615995D01*
X77795381Y-89568376D02*
X77795381Y-89377900D01*
X77747762Y-89282661D01*
X77700143Y-89235042D01*
X77557286Y-89139804D01*
X77366810Y-89092185D01*
X76985857Y-89092185D01*
X76890619Y-89139804D01*
X76843000Y-89187423D01*
X76795381Y-89282661D01*
X76795381Y-89473138D01*
X76843000Y-89568376D01*
X76890619Y-89615995D01*
X76985857Y-89663614D01*
X77223952Y-89663614D01*
X77319190Y-89615995D01*
X77366810Y-89568376D01*
X77414429Y-89473138D01*
X77414429Y-89282661D01*
X77366810Y-89187423D01*
X77319190Y-89139804D01*
X77223952Y-89092185D01*
X87320381Y-90520757D02*
X86844190Y-90854091D01*
X87320381Y-91092186D02*
X86320381Y-91092186D01*
X86320381Y-90711233D01*
X86368000Y-90615995D01*
X86415619Y-90568376D01*
X86510857Y-90520757D01*
X86653714Y-90520757D01*
X86748952Y-90568376D01*
X86796571Y-90615995D01*
X86844190Y-90711233D01*
X86844190Y-91092186D01*
X87320381Y-89568376D02*
X87320381Y-90139805D01*
X87320381Y-89854091D02*
X86320381Y-89854091D01*
X86463238Y-89949329D01*
X86558476Y-90044567D01*
X86606095Y-90139805D01*
X86320381Y-88949329D02*
X86320381Y-88854090D01*
X86368000Y-88758852D01*
X86415619Y-88711233D01*
X86510857Y-88663614D01*
X86701333Y-88615995D01*
X86939429Y-88615995D01*
X87129905Y-88663614D01*
X87225143Y-88711233D01*
X87272762Y-88758852D01*
X87320381Y-88854090D01*
X87320381Y-88949329D01*
X87272762Y-89044567D01*
X87225143Y-89092186D01*
X87129905Y-89139805D01*
X86939429Y-89187424D01*
X86701333Y-89187424D01*
X86510857Y-89139805D01*
X86415619Y-89092186D01*
X86368000Y-89044567D01*
X86320381Y-88949329D01*
X151630143Y-87155281D02*
X151296809Y-86679090D01*
X151058714Y-87155281D02*
X151058714Y-86155281D01*
X151439667Y-86155281D01*
X151534905Y-86202900D01*
X151582524Y-86250519D01*
X151630143Y-86345757D01*
X151630143Y-86488614D01*
X151582524Y-86583852D01*
X151534905Y-86631471D01*
X151439667Y-86679090D01*
X151058714Y-86679090D01*
X152582524Y-87155281D02*
X152011095Y-87155281D01*
X152296809Y-87155281D02*
X152296809Y-86155281D01*
X152201571Y-86298138D01*
X152106333Y-86393376D01*
X152011095Y-86440995D01*
X153534905Y-87155281D02*
X152963476Y-87155281D01*
X153249190Y-87155281D02*
X153249190Y-86155281D01*
X153153952Y-86298138D01*
X153058714Y-86393376D01*
X152963476Y-86440995D01*
X155900381Y-100045757D02*
X155424190Y-100379091D01*
X155900381Y-100617186D02*
X154900381Y-100617186D01*
X154900381Y-100236233D01*
X154948000Y-100140995D01*
X154995619Y-100093376D01*
X155090857Y-100045757D01*
X155233714Y-100045757D01*
X155328952Y-100093376D01*
X155376571Y-100140995D01*
X155424190Y-100236233D01*
X155424190Y-100617186D01*
X155900381Y-99093376D02*
X155900381Y-99664805D01*
X155900381Y-99379091D02*
X154900381Y-99379091D01*
X155043238Y-99474329D01*
X155138476Y-99569567D01*
X155186095Y-99664805D01*
X154995619Y-98712424D02*
X154948000Y-98664805D01*
X154900381Y-98569567D01*
X154900381Y-98331471D01*
X154948000Y-98236233D01*
X154995619Y-98188614D01*
X155090857Y-98140995D01*
X155186095Y-98140995D01*
X155328952Y-98188614D01*
X155900381Y-98760043D01*
X155900381Y-98140995D01*
X72567762Y-111456233D02*
X72615381Y-111313376D01*
X72615381Y-111075280D01*
X72567762Y-110980042D01*
X72520143Y-110932423D01*
X72424905Y-110884804D01*
X72329667Y-110884804D01*
X72234429Y-110932423D01*
X72186810Y-110980042D01*
X72139190Y-111075280D01*
X72091571Y-111265757D01*
X72043952Y-111360995D01*
X71996333Y-111408614D01*
X71901095Y-111456233D01*
X71805857Y-111456233D01*
X71710619Y-111408614D01*
X71663000Y-111360995D01*
X71615381Y-111265757D01*
X71615381Y-111027661D01*
X71663000Y-110884804D01*
X71615381Y-110551471D02*
X72615381Y-110313376D01*
X71901095Y-110122899D01*
X72615381Y-109932423D01*
X71615381Y-109694328D01*
X72615381Y-108789566D02*
X72615381Y-109360995D01*
X72615381Y-109075281D02*
X71615381Y-109075281D01*
X71758238Y-109170519D01*
X71853476Y-109265757D01*
X71901095Y-109360995D01*
X81902762Y-111456233D02*
X81950381Y-111313376D01*
X81950381Y-111075280D01*
X81902762Y-110980042D01*
X81855143Y-110932423D01*
X81759905Y-110884804D01*
X81664667Y-110884804D01*
X81569429Y-110932423D01*
X81521810Y-110980042D01*
X81474190Y-111075280D01*
X81426571Y-111265757D01*
X81378952Y-111360995D01*
X81331333Y-111408614D01*
X81236095Y-111456233D01*
X81140857Y-111456233D01*
X81045619Y-111408614D01*
X80998000Y-111360995D01*
X80950381Y-111265757D01*
X80950381Y-111027661D01*
X80998000Y-110884804D01*
X80950381Y-110551471D02*
X81950381Y-110313376D01*
X81236095Y-110122899D01*
X81950381Y-109932423D01*
X80950381Y-109694328D01*
X81045619Y-109360995D02*
X80998000Y-109313376D01*
X80950381Y-109218138D01*
X80950381Y-108980042D01*
X80998000Y-108884804D01*
X81045619Y-108837185D01*
X81140857Y-108789566D01*
X81236095Y-108789566D01*
X81378952Y-108837185D01*
X81950381Y-109408614D01*
X81950381Y-108789566D01*
X91427762Y-111456233D02*
X91475381Y-111313376D01*
X91475381Y-111075280D01*
X91427762Y-110980042D01*
X91380143Y-110932423D01*
X91284905Y-110884804D01*
X91189667Y-110884804D01*
X91094429Y-110932423D01*
X91046810Y-110980042D01*
X90999190Y-111075280D01*
X90951571Y-111265757D01*
X90903952Y-111360995D01*
X90856333Y-111408614D01*
X90761095Y-111456233D01*
X90665857Y-111456233D01*
X90570619Y-111408614D01*
X90523000Y-111360995D01*
X90475381Y-111265757D01*
X90475381Y-111027661D01*
X90523000Y-110884804D01*
X90475381Y-110551471D02*
X91475381Y-110313376D01*
X90761095Y-110122899D01*
X91475381Y-109932423D01*
X90475381Y-109694328D01*
X90475381Y-109408614D02*
X90475381Y-108789566D01*
X90856333Y-109122900D01*
X90856333Y-108980042D01*
X90903952Y-108884804D01*
X90951571Y-108837185D01*
X91046810Y-108789566D01*
X91284905Y-108789566D01*
X91380143Y-108837185D01*
X91427762Y-108884804D01*
X91475381Y-108980042D01*
X91475381Y-109265757D01*
X91427762Y-109360995D01*
X91380143Y-109408614D01*
X153412762Y-112591233D02*
X153460381Y-112448376D01*
X153460381Y-112210280D01*
X153412762Y-112115042D01*
X153365143Y-112067423D01*
X153269905Y-112019804D01*
X153174667Y-112019804D01*
X153079429Y-112067423D01*
X153031810Y-112115042D01*
X152984190Y-112210280D01*
X152936571Y-112400757D01*
X152888952Y-112495995D01*
X152841333Y-112543614D01*
X152746095Y-112591233D01*
X152650857Y-112591233D01*
X152555619Y-112543614D01*
X152508000Y-112495995D01*
X152460381Y-112400757D01*
X152460381Y-112162661D01*
X152508000Y-112019804D01*
X152460381Y-111686471D02*
X153460381Y-111448376D01*
X152746095Y-111257899D01*
X153460381Y-111067423D01*
X152460381Y-110829328D01*
X152793714Y-110019804D02*
X153460381Y-110019804D01*
X152412762Y-110257900D02*
X153127048Y-110495995D01*
X153127048Y-109876947D01*
X103890381Y-91909805D02*
X104699905Y-91909805D01*
X104795143Y-91862186D01*
X104842762Y-91814567D01*
X104890381Y-91719329D01*
X104890381Y-91528852D01*
X104842762Y-91433614D01*
X104795143Y-91385995D01*
X104699905Y-91338376D01*
X103890381Y-91338376D01*
X104890381Y-90338376D02*
X104890381Y-90909805D01*
X104890381Y-90624091D02*
X103890381Y-90624091D01*
X104033238Y-90719329D01*
X104128476Y-90814567D01*
X104176095Y-90909805D01*
X120483381Y-94322805D02*
X121292905Y-94322805D01*
X121388143Y-94275186D01*
X121435762Y-94227567D01*
X121483381Y-94132329D01*
X121483381Y-93941852D01*
X121435762Y-93846614D01*
X121388143Y-93798995D01*
X121292905Y-93751376D01*
X120483381Y-93751376D01*
X120578619Y-93322805D02*
X120531000Y-93275186D01*
X120483381Y-93179948D01*
X120483381Y-92941852D01*
X120531000Y-92846614D01*
X120578619Y-92798995D01*
X120673857Y-92751376D01*
X120769095Y-92751376D01*
X120911952Y-92798995D01*
X121483381Y-93370424D01*
X121483381Y-92751376D01*
X152516609Y-101311947D02*
X152516609Y-101788138D01*
X151516609Y-101788138D01*
X151992799Y-100978614D02*
X151992799Y-100645280D01*
X152516609Y-100502423D02*
X152516609Y-100978614D01*
X151516609Y-100978614D01*
X151516609Y-100502423D01*
X152516609Y-100073852D02*
X151516609Y-100073852D01*
X151516609Y-99835757D01*
X151564228Y-99692899D01*
X151659466Y-99597661D01*
X151754704Y-99550042D01*
X151945180Y-99502423D01*
X152088038Y-99502423D01*
X152278514Y-99550042D01*
X152373752Y-99597661D01*
X152468990Y-99692899D01*
X152516609Y-99835757D01*
X152516609Y-100073852D01*
X151516609Y-99169090D02*
X151516609Y-98502423D01*
X152516609Y-98930995D01*
X145531609Y-101311947D02*
X145531609Y-101788138D01*
X144531609Y-101788138D01*
X145007799Y-100978614D02*
X145007799Y-100645280D01*
X145531609Y-100502423D02*
X145531609Y-100978614D01*
X144531609Y-100978614D01*
X144531609Y-100502423D01*
X145531609Y-100073852D02*
X144531609Y-100073852D01*
X144531609Y-99835757D01*
X144579228Y-99692899D01*
X144674466Y-99597661D01*
X144769704Y-99550042D01*
X144960180Y-99502423D01*
X145103038Y-99502423D01*
X145293514Y-99550042D01*
X145388752Y-99597661D01*
X145483990Y-99692899D01*
X145531609Y-99835757D01*
X145531609Y-100073852D01*
X144531609Y-98645280D02*
X144531609Y-98835757D01*
X144579228Y-98930995D01*
X144626847Y-98978614D01*
X144769704Y-99073852D01*
X144960180Y-99121471D01*
X145341133Y-99121471D01*
X145436371Y-99073852D01*
X145483990Y-99026233D01*
X145531609Y-98930995D01*
X145531609Y-98740518D01*
X145483990Y-98645280D01*
X145436371Y-98597661D01*
X145341133Y-98550042D01*
X145103038Y-98550042D01*
X145007799Y-98597661D01*
X144960180Y-98645280D01*
X144912561Y-98740518D01*
X144912561Y-98930995D01*
X144960180Y-99026233D01*
X145007799Y-99073852D01*
X145103038Y-99121471D01*
X131561609Y-101311947D02*
X131561609Y-101788138D01*
X130561609Y-101788138D01*
X131037799Y-100978614D02*
X131037799Y-100645280D01*
X131561609Y-100502423D02*
X131561609Y-100978614D01*
X130561609Y-100978614D01*
X130561609Y-100502423D01*
X131561609Y-100073852D02*
X130561609Y-100073852D01*
X130561609Y-99835757D01*
X130609228Y-99692899D01*
X130704466Y-99597661D01*
X130799704Y-99550042D01*
X130990180Y-99502423D01*
X131133038Y-99502423D01*
X131323514Y-99550042D01*
X131418752Y-99597661D01*
X131513990Y-99692899D01*
X131561609Y-99835757D01*
X131561609Y-100073852D01*
X130894942Y-98645280D02*
X131561609Y-98645280D01*
X130513990Y-98883376D02*
X131228276Y-99121471D01*
X131228276Y-98502423D01*
X124576609Y-101946947D02*
X124576609Y-102423138D01*
X123576609Y-102423138D01*
X124052799Y-101613614D02*
X124052799Y-101280280D01*
X124576609Y-101137423D02*
X124576609Y-101613614D01*
X123576609Y-101613614D01*
X123576609Y-101137423D01*
X124576609Y-100708852D02*
X123576609Y-100708852D01*
X123576609Y-100470757D01*
X123624228Y-100327899D01*
X123719466Y-100232661D01*
X123814704Y-100185042D01*
X124005180Y-100137423D01*
X124148038Y-100137423D01*
X124338514Y-100185042D01*
X124433752Y-100232661D01*
X124528990Y-100327899D01*
X124576609Y-100470757D01*
X124576609Y-100708852D01*
X123576609Y-99804090D02*
X123576609Y-99185042D01*
X123957561Y-99518376D01*
X123957561Y-99375518D01*
X124005180Y-99280280D01*
X124052799Y-99232661D01*
X124148038Y-99185042D01*
X124386133Y-99185042D01*
X124481371Y-99232661D01*
X124528990Y-99280280D01*
X124576609Y-99375518D01*
X124576609Y-99661233D01*
X124528990Y-99756471D01*
X124481371Y-99804090D01*
X117591609Y-101946947D02*
X117591609Y-102423138D01*
X116591609Y-102423138D01*
X117067799Y-101613614D02*
X117067799Y-101280280D01*
X117591609Y-101137423D02*
X117591609Y-101613614D01*
X116591609Y-101613614D01*
X116591609Y-101137423D01*
X117591609Y-100708852D02*
X116591609Y-100708852D01*
X116591609Y-100470757D01*
X116639228Y-100327899D01*
X116734466Y-100232661D01*
X116829704Y-100185042D01*
X117020180Y-100137423D01*
X117163038Y-100137423D01*
X117353514Y-100185042D01*
X117448752Y-100232661D01*
X117543990Y-100327899D01*
X117591609Y-100470757D01*
X117591609Y-100708852D01*
X116686847Y-99756471D02*
X116639228Y-99708852D01*
X116591609Y-99613614D01*
X116591609Y-99375518D01*
X116639228Y-99280280D01*
X116686847Y-99232661D01*
X116782085Y-99185042D01*
X116877323Y-99185042D01*
X117020180Y-99232661D01*
X117591609Y-99804090D01*
X117591609Y-99185042D01*
X110606609Y-101946947D02*
X110606609Y-102423138D01*
X109606609Y-102423138D01*
X110082799Y-101613614D02*
X110082799Y-101280280D01*
X110606609Y-101137423D02*
X110606609Y-101613614D01*
X109606609Y-101613614D01*
X109606609Y-101137423D01*
X110606609Y-100708852D02*
X109606609Y-100708852D01*
X109606609Y-100470757D01*
X109654228Y-100327899D01*
X109749466Y-100232661D01*
X109844704Y-100185042D01*
X110035180Y-100137423D01*
X110178038Y-100137423D01*
X110368514Y-100185042D01*
X110463752Y-100232661D01*
X110558990Y-100327899D01*
X110606609Y-100470757D01*
X110606609Y-100708852D01*
X110606609Y-99185042D02*
X110606609Y-99756471D01*
X110606609Y-99470757D02*
X109606609Y-99470757D01*
X109749466Y-99565995D01*
X109844704Y-99661233D01*
X109892323Y-99756471D01*
X103621609Y-101946947D02*
X103621609Y-102423138D01*
X102621609Y-102423138D01*
X103097799Y-101613614D02*
X103097799Y-101280280D01*
X103621609Y-101137423D02*
X103621609Y-101613614D01*
X102621609Y-101613614D01*
X102621609Y-101137423D01*
X103621609Y-100708852D02*
X102621609Y-100708852D01*
X102621609Y-100470757D01*
X102669228Y-100327899D01*
X102764466Y-100232661D01*
X102859704Y-100185042D01*
X103050180Y-100137423D01*
X103193038Y-100137423D01*
X103383514Y-100185042D01*
X103478752Y-100232661D01*
X103573990Y-100327899D01*
X103621609Y-100470757D01*
X103621609Y-100708852D01*
X102621609Y-99518376D02*
X102621609Y-99423137D01*
X102669228Y-99327899D01*
X102716847Y-99280280D01*
X102812085Y-99232661D01*
X103002561Y-99185042D01*
X103240657Y-99185042D01*
X103431133Y-99232661D01*
X103526371Y-99280280D01*
X103573990Y-99327899D01*
X103621609Y-99423137D01*
X103621609Y-99518376D01*
X103573990Y-99613614D01*
X103526371Y-99661233D01*
X103431133Y-99708852D01*
X103240657Y-99756471D01*
X103002561Y-99756471D01*
X102812085Y-99708852D01*
X102716847Y-99661233D01*
X102669228Y-99613614D01*
X102621609Y-99518376D01*
X84792762Y-97125281D02*
X84316571Y-97125281D01*
X84316571Y-96125281D01*
X85126095Y-96601471D02*
X85459429Y-96601471D01*
X85602286Y-97125281D02*
X85126095Y-97125281D01*
X85126095Y-96125281D01*
X85602286Y-96125281D01*
X86030857Y-97125281D02*
X86030857Y-96125281D01*
X86268952Y-96125281D01*
X86411810Y-96172900D01*
X86507048Y-96268138D01*
X86554667Y-96363376D01*
X86602286Y-96553852D01*
X86602286Y-96696710D01*
X86554667Y-96887186D01*
X86507048Y-96982424D01*
X86411810Y-97077662D01*
X86268952Y-97125281D01*
X86030857Y-97125281D01*
X87554667Y-97125281D02*
X86983238Y-97125281D01*
X87268952Y-97125281D02*
X87268952Y-96125281D01*
X87173714Y-96268138D01*
X87078476Y-96363376D01*
X86983238Y-96410995D01*
X88173714Y-96125281D02*
X88268953Y-96125281D01*
X88364191Y-96172900D01*
X88411810Y-96220519D01*
X88459429Y-96315757D01*
X88507048Y-96506233D01*
X88507048Y-96744329D01*
X88459429Y-96934805D01*
X88411810Y-97030043D01*
X88364191Y-97077662D01*
X88268953Y-97125281D01*
X88173714Y-97125281D01*
X88078476Y-97077662D01*
X88030857Y-97030043D01*
X87983238Y-96934805D01*
X87935619Y-96744329D01*
X87935619Y-96506233D01*
X87983238Y-96315757D01*
X88030857Y-96220519D01*
X88078476Y-96172900D01*
X88173714Y-96125281D01*
X75108953Y-97125281D02*
X74632762Y-97125281D01*
X74632762Y-96125281D01*
X75442286Y-96601471D02*
X75775620Y-96601471D01*
X75918477Y-97125281D02*
X75442286Y-97125281D01*
X75442286Y-96125281D01*
X75918477Y-96125281D01*
X76347048Y-97125281D02*
X76347048Y-96125281D01*
X76585143Y-96125281D01*
X76728001Y-96172900D01*
X76823239Y-96268138D01*
X76870858Y-96363376D01*
X76918477Y-96553852D01*
X76918477Y-96696710D01*
X76870858Y-96887186D01*
X76823239Y-96982424D01*
X76728001Y-97077662D01*
X76585143Y-97125281D01*
X76347048Y-97125281D01*
X77394667Y-97125281D02*
X77585143Y-97125281D01*
X77680382Y-97077662D01*
X77728001Y-97030043D01*
X77823239Y-96887186D01*
X77870858Y-96696710D01*
X77870858Y-96315757D01*
X77823239Y-96220519D01*
X77775620Y-96172900D01*
X77680382Y-96125281D01*
X77489905Y-96125281D01*
X77394667Y-96172900D01*
X77347048Y-96220519D01*
X77299429Y-96315757D01*
X77299429Y-96553852D01*
X77347048Y-96649090D01*
X77394667Y-96696710D01*
X77489905Y-96744329D01*
X77680382Y-96744329D01*
X77775620Y-96696710D01*
X77823239Y-96649090D01*
X77870858Y-96553852D01*
X66218953Y-97125281D02*
X65742762Y-97125281D01*
X65742762Y-96125281D01*
X66552286Y-96601471D02*
X66885620Y-96601471D01*
X67028477Y-97125281D02*
X66552286Y-97125281D01*
X66552286Y-96125281D01*
X67028477Y-96125281D01*
X67457048Y-97125281D02*
X67457048Y-96125281D01*
X67695143Y-96125281D01*
X67838001Y-96172900D01*
X67933239Y-96268138D01*
X67980858Y-96363376D01*
X68028477Y-96553852D01*
X68028477Y-96696710D01*
X67980858Y-96887186D01*
X67933239Y-96982424D01*
X67838001Y-97077662D01*
X67695143Y-97125281D01*
X67457048Y-97125281D01*
X68599905Y-96553852D02*
X68504667Y-96506233D01*
X68457048Y-96458614D01*
X68409429Y-96363376D01*
X68409429Y-96315757D01*
X68457048Y-96220519D01*
X68504667Y-96172900D01*
X68599905Y-96125281D01*
X68790382Y-96125281D01*
X68885620Y-96172900D01*
X68933239Y-96220519D01*
X68980858Y-96315757D01*
X68980858Y-96363376D01*
X68933239Y-96458614D01*
X68885620Y-96506233D01*
X68790382Y-96553852D01*
X68599905Y-96553852D01*
X68504667Y-96601471D01*
X68457048Y-96649090D01*
X68409429Y-96744329D01*
X68409429Y-96934805D01*
X68457048Y-97030043D01*
X68504667Y-97077662D01*
X68599905Y-97125281D01*
X68790382Y-97125281D01*
X68885620Y-97077662D01*
X68933239Y-97030043D01*
X68980858Y-96934805D01*
X68980858Y-96744329D01*
X68933239Y-96649090D01*
X68885620Y-96601471D01*
X68790382Y-96553852D01*
M02*
